{
    "asset" : {
        "generator" : "Khronos glTF Blender I/O v1.8.19",
        "version" : "2.0"
    },
    "scene" : 0,
    "scenes" : [
        {
            "name" : "Scene",
            "nodes" : [
                0
            ]
        }
    ],
    "nodes" : [
        {
            "mesh" : 0,
            "name" : "korobochka",
            "rotation" : [
                0.6644810438156128,
                -0.12197330594062805,
                0.12012272328138351,
                0.7274324893951416
            ],
            "scale" : [
                0.009999998845160007,
                0.009999999776482582,
                0.009999999776482582
            ],
            "translation" : [
                -0.0003708743897732347,
                -0.016175566241145134,
                -0.00033049582270905375
            ]
        }
    ],
    "materials" : [
        {
            "doubleSided" : true,
            "name" : "korobochka)",
            "pbrMetallicRoughness" : {
                "baseColorTexture" : {
                    "index" : 0
                },
                "metallicFactor" : 0,
                "roughnessFactor" : 0.5
            }
        }
    ],
    "meshes" : [
        {
            "name" : "\u041c\u0435\u0448",
            "primitives" : [
                {
                    "attributes" : {
                        "POSITION" : 0,
                        "NORMAL" : 1,
                        "TEXCOORD_0" : 2
                    },
                    "indices" : 3,
                    "material" : 0
                }
            ]
        }
    ],
    "textures" : [
        {
            "sampler" : 0,
            "source" : 0
        }
    ],
    "images" : [
        {
            "bufferView" : 4,
            "mimeType" : "image/png",
            "name" : "logo"
        }
    ],
    "accessors" : [
        {
            "bufferView" : 0,
            "componentType" : 5126,
            "count" : 16699,
            "max" : [
                14.47206974029541,
                8.141599655151367,
                10.072687149047852
            ],
            "min" : [
                -14.446372985839844,
                -7.995765686035156,
                -10.011723518371582
            ],
            "type" : "VEC3"
        },
        {
            "bufferView" : 1,
            "componentType" : 5126,
            "count" : 16699,
            "type" : "VEC3"
        },
        {
            "bufferView" : 2,
            "componentType" : 5126,
            "count" : 16699,
            "type" : "VEC2"
        },
        {
            "bufferView" : 3,
            "componentType" : 5123,
            "count" : 89988,
            "type" : "SCALAR"
        }
    ],
    "bufferViews" : [
        {
            "buffer" : 0,
            "byteLength" : 200388,
            "byteOffset" : 0
        },
        {
            "buffer" : 0,
            "byteLength" : 200388,
            "byteOffset" : 200388
        },
        {
            "buffer" : 0,
            "byteLength" : 133592,
            "byteOffset" : 400776
        },
        {
            "buffer" : 0,
            "byteLength" : 179976,
            "byteOffset" : 534368
        },
        {
            "buffer" : 0,
            "byteLength" : 49489,
            "byteOffset" : 714344
        }
    ],
    "samplers" : [
        {
            "magFilter" : 9729,
            "minFilter" : 9987
        }
    ],
    "buffers" : [
        {
            "byteLength" : 763836,
            "uri" : "data:application/octet-stream;base64,"
        }
    ]
}
