{
    "asset" : {
        "generator" : "Khronos glTF Blender I/O v1.8.19",
        "version" : "2.0"
    },
    "scene" : 0,
    "scenes" : [
        {
            "name" : "Scene",
            "nodes" : [
                0
            ]
        }
    ],
    "nodes" : [
        {
            "mesh" : 0,
            "name" : "Mesh_0.001"
        }
    ],
    "materials" : [
        {
            "name" : "Material_0.001",
            "normalTexture" : {
                "index" : 0
            },
            "occlusionTexture" : {
                "index" : 1
            },
            "pbrMetallicRoughness" : {
                "baseColorTexture" : {
                    "index" : 2
                },
                "metallicFactor" : 0
            }
        }
    ],
    "meshes" : [
        {
            "name" : "Mesh_0.001",
            "primitives" : [
                {
                    "attributes" : {
                        "POSITION" : 0,
                        "NORMAL" : 1,
                        "TEXCOORD_0" : 2
                    },
                    "indices" : 3,
                    "material" : 0
                }
            ]
        }
    ],
    "textures" : [
        {
            "sampler" : 0,
            "source" : 0
        },
        {
            "sampler" : 0,
            "source" : 1
        },
        {
            "sampler" : 0,
            "source" : 2
        }
    ],
    "images" : [
        {
            "bufferView" : 4,
            "mimeType" : "image/jpeg",
            "name" : "Image_1"
        },
        {
            "bufferView" : 5,
            "mimeType" : "image/jpeg",
            "name" : "Image_2"
        },
        {
            "bufferView" : 6,
            "mimeType" : "image/jpeg",
            "name" : "Image_0"
        }
    ],
    "accessors" : [
        {
            "bufferView" : 0,
            "componentType" : 5126,
            "count" : 16460,
            "max" : [
                0.021712692454457283,
                0.02178393304347992,
                0.029084637761116028
            ],
            "min" : [
                -0.021712692454457283,
                -0.02275910973548889,
                -0.029084637761116028
            ],
            "type" : "VEC3"
        },
        {
            "bufferView" : 1,
            "componentType" : 5126,
            "count" : 16460,
            "type" : "VEC3"
        },
        {
            "bufferView" : 2,
            "componentType" : 5126,
            "count" : 16460,
            "type" : "VEC2"
        },
        {
            "bufferView" : 3,
            "componentType" : 5123,
            "count" : 86346,
            "type" : "SCALAR"
        }
    ],
    "bufferViews" : [
        {
            "buffer" : 0,
            "byteLength" : 197520,
            "byteOffset" : 0
        },
        {
            "buffer" : 0,
            "byteLength" : 197520,
            "byteOffset" : 197520
        },
        {
            "buffer" : 0,
            "byteLength" : 131680,
            "byteOffset" : 395040
        },
        {
            "buffer" : 0,
            "byteLength" : 172692,
            "byteOffset" : 526720
        },
        {
            "buffer" : 0,
            "byteLength" : 307820,
            "byteOffset" : 699412
        },
        {
            "buffer" : 0,
            "byteLength" : 626644,
            "byteOffset" : 1007232
        },
        {
            "buffer" : 0,
            "byteLength" : 623060,
            "byteOffset" : 1633876
        }
    ],
    "samplers" : [
        {
            "magFilter" : 9729,
            "minFilter" : 9987
        }
    ],
    "buffers" : [
        {
            "byteLength" : 2256936,
            "uri" : "data:application/octet-stream;base64,"
        }
    ]
}
